<?xml version="1.0" standalone="no"?>
<!DOCTYPE svg PUBLIC "-//W3C//DTD SVG 20010904//EN"
 "http://www.w3.org/TR/2001/REC-SVG-20010904/DTD/svg10.dtd">
<svg version="1.0" xmlns="http://www.w3.org/2000/svg"
 width="670.000000pt" height="297.000000pt" viewBox="0 0 670.000000 297.000000"
 preserveAspectRatio="xMidYMid meet">

<g transform="translate(0.000000,297.000000) scale(0.100000,-0.100000)"
fill="#000000" stroke="none">
<path d="M2905 2960 c3 -5 10 -10 16 -10 5 0 9 5 9 10 0 6 -7 10 -16 10 -8 0
-12 -4 -9 -10z"/>
<path d="M3897 2955 c-4 -8 3 -10 19 -7 33 6 39 20 9 20 -13 0 -26 -6 -28 -13z"/>
<path d="M3175 2939 c-11 -17 1 -21 15 -4 8 9 8 15 2 15 -6 0 -14 -5 -17 -11z"/>
<path d="M5970 2930 c-11 -21 -4 -30 27 -30 16 0 23 6 23 19 0 26 -37 34 -50
11z"/>
<path d="M6608 2924 c-2 -23 -10 -31 -38 -40 -44 -15 -37 -27 16 -30 33 -1 41
2 40 15 0 9 8 17 19 19 20 3 51 39 42 48 -3 3 -20 7 -40 11 -33 5 -36 4 -39
-23z"/>
<path d="M6220 2936 c0 -2 7 -9 15 -16 9 -7 15 -8 15 -2 0 5 -7 12 -15 16 -8
3 -15 4 -15 2z"/>
<path d="M2846 2901 c-3 -5 1 -12 10 -15 22 -8 25 -4 9 11 -8 7 -16 9 -19 4z"/>
<path d="M3950 2900 c0 -5 5 -10 10 -10 6 0 10 5 10 10 0 6 -4 10 -10 10 -5 0
-10 -4 -10 -10z"/>
<path d="M6470 2884 c-19 -7 -28 -13 -20 -14 25 -4 54 1 63 10 16 15 -8 17
-43 4z"/>
<path d="M6170 2876 c0 -10 9 -16 23 -17 17 -1 18 -2 4 -6 -29 -8 -18 -48 13
-48 17 0 24 5 21 15 -2 8 -3 25 -3 38 0 12 -6 22 -13 22 -8 0 -20 3 -29 6 -11
4 -16 1 -16 -10z"/>
<path d="M5810 2870 c0 -5 7 -7 15 -4 8 4 15 8 15 10 0 2 -7 4 -15 4 -8 0 -15
-4 -15 -10z"/>
<path d="M2950 2850 c0 -5 4 -10 9 -10 6 0 13 5 16 10 3 6 -1 10 -9 10 -9 0
-16 -4 -16 -10z"/>
<path d="M6405 2840 c-3 -5 -2 -10 3 -10 5 0 19 -9 31 -19 13 -11 30 -17 38
-14 13 5 12 8 -6 15 -12 4 -20 12 -16 18 3 6 -1 7 -9 4 -9 -3 -16 -1 -16 5 0
14 -17 14 -25 1z"/>
<path d="M5970 2823 c0 -6 -7 -19 -16 -27 -14 -15 -14 -16 1 -16 12 0 16 -8
14 -32 -4 -61 1 -90 13 -86 20 7 21 75 2 104 -13 19 -14 28 -5 37 12 12 19 13
78 16 46 2 15 15 -37 16 -32 0 -50 -4 -50 -12z"/>
<path d="M6597 2805 c-15 -22 -16 -25 -2 -25 18 0 19 -26 2 -60 -8 -15 -11
-34 -6 -45 4 -11 8 -16 8 -12 1 4 7 2 15 -5 10 -9 11 -17 4 -25 -6 -7 -7 -27
-3 -45 19 -89 17 -133 -5 -161 -18 -23 -29 -28 -59 -26 -20 2 -42 0 -49 -5
-18 -11 -15 -66 3 -66 8 0 15 7 15 15 0 16 43 31 60 20 16 -10 77 14 85 33 14
34 13 106 -1 133 -19 37 -18 79 1 79 17 0 20 16 6 25 -5 3 -7 21 -4 40 3 20 1
41 -6 49 -9 10 -9 16 -1 21 8 5 4 12 -9 22 -27 18 -18 33 20 33 19 0 29 5 29
15 0 11 -11 15 -42 15 -34 -1 -47 -6 -61 -25z"/>
<path d="M3797 2780 c9 -11 19 -17 21 -15 6 6 -18 35 -29 35 -5 0 -1 -9 8 -20z"/>
<path d="M6369 2784 c-11 -14 -10 -16 9 -12 13 1 23 7 23 13 1 17 -17 16 -32
-1z"/>
<path d="M3888 2783 c7 -3 16 -2 19 1 4 3 -2 6 -13 5 -11 0 -14 -3 -6 -6z"/>
<path d="M4365 2780 c-16 -7 -17 -9 -3 -9 9 -1 20 4 23 9 7 11 7 11 -20 0z"/>
<path d="M2996 2763 c-6 -14 -5 -15 5 -6 7 7 10 15 7 18 -3 3 -9 -2 -12 -12z"/>
<path d="M5008 2763 c6 -2 18 -2 25 0 6 3 1 5 -13 5 -14 0 -19 -2 -12 -5z"/>
<path d="M5121 2744 c31 -35 43 -64 26 -64 -7 -1 2 -7 18 -15 26 -11 27 -13 8
-14 -48 -2 -53 -9 -53 -81 0 -90 -4 -99 -54 -107 -39 -7 -40 -7 -12 -13 39 -7
43 -24 9 -38 l-28 -12 24 20 c26 22 11 27 -33 10 -30 -11 -56 -4 -56 17 0 8
-5 11 -10 8 -14 -9 -35 45 -50 128 -9 47 -16 65 -23 58 -7 -7 -6 -24 1 -53 6
-24 14 -62 17 -85 7 -42 49 -93 78 -93 7 0 24 -7 40 -15 23 -12 32 -12 61 0
46 19 96 63 96 84 0 10 3 21 7 24 4 4 9 50 11 102 3 82 2 95 -12 95 -8 0 -23
11 -32 25 -9 14 -26 31 -38 37 -18 9 -17 7 5 -18z m49 -162 c0 -18 -6 -32 -15
-36 -13 -5 -14 -2 -4 16 9 17 9 23 0 26 -6 2 -11 15 -11 29 0 22 2 23 15 9 8
-8 15 -28 15 -44z m-5 -72 c-3 -5 -10 -10 -16 -10 -5 0 -9 5 -9 10 0 6 7 10
16 10 8 0 12 -4 9 -10z m-35 -55 c-7 -9 -15 -13 -17 -11 -6 6 20 36 26 30 2
-2 -2 -10 -9 -19z"/>
<path d="M3844 2735 c-4 -8 -17 -15 -30 -15 -13 0 -24 -4 -24 -10 0 -17 36
-11 55 10 12 13 26 18 44 15 22 -5 23 -4 6 4 -30 14 -45 13 -51 -4z"/>
<path d="M5650 2741 c0 -6 4 -13 10 -16 6 -3 7 1 4 9 -7 18 -14 21 -14 7z"/>
<path d="M5740 2739 c0 -5 5 -7 10 -4 6 3 10 8 10 11 0 2 -4 4 -10 4 -5 0 -10
-5 -10 -11z"/>
<path d="M2860 2736 c0 -2 7 -7 16 -10 8 -3 12 -2 9 4 -6 10 -25 14 -25 6z"/>
<path d="M2940 2730 c0 -5 5 -10 11 -10 5 0 7 5 4 10 -3 6 -8 10 -11 10 -2 0
-4 -4 -4 -10z"/>
<path d="M3920 2729 c0 -5 5 -7 10 -4 6 3 10 8 10 11 0 2 -4 4 -10 4 -5 0 -10
-5 -10 -11z"/>
<path d="M5691 2726 c-14 -17 -11 -52 4 -49 13 2 24 38 16 52 -6 9 -11 8 -20
-3z"/>
<path d="M2908 2713 c7 -3 16 -2 19 1 4 3 -2 6 -13 5 -11 0 -14 -3 -6 -6z"/>
<path d="M2970 2708 c0 -4 19 -8 42 -8 23 0 38 3 34 7 -9 10 -76 10 -76 1z"/>
<path d="M4919 2701 c-13 -11 -22 -21 -19 -24 3 -2 16 6 30 19 29 29 22 32
-11 5z"/>
<path d="M6330 2709 c0 -5 7 -12 15 -15 8 -4 15 -14 16 -23 0 -12 2 -11 8 4 5
11 7 23 5 26 -6 11 -44 18 -44 8z"/>
<path d="M5100 2700 c0 -21 17 -46 25 -38 4 4 0 17 -9 30 -10 14 -16 17 -16 8z"/>
<path d="M3760 2655 c-11 -13 -10 -14 4 -9 9 3 16 10 16 15 0 13 -6 11 -20 -6z"/>
<path d="M6000 2636 c0 -9 5 -16 10 -16 6 0 10 4 10 9 0 6 -4 13 -10 16 -5 3
-10 -1 -10 -9z"/>
<path d="M601 2613 c0 -25 1 -26 9 -8 12 27 12 35 0 35 -5 0 -10 -12 -9 -27z"/>
<path d="M2949 2624 c25 -11 41 -13 55 -6 20 9 20 10 -4 10 -14 0 -38 3 -55 6
-30 6 -30 6 4 -10z"/>
<path d="M3833 2633 c9 -2 25 -2 35 0 9 3 1 5 -18 5 -19 0 -27 -2 -17 -5z"/>
<path d="M3908 2633 c6 -2 18 -2 25 0 6 3 1 5 -13 5 -14 0 -19 -2 -12 -5z"/>
<path d="M5974 2598 c4 -18 9 -58 12 -88 6 -51 4 -58 -21 -83 -21 -20 -38 -27
-66 -27 -28 0 -41 -5 -49 -19 -13 -25 -13 -41 0 -41 6 0 10 5 10 11 0 16 29
41 40 34 5 -3 27 -1 49 5 31 8 42 17 50 42 14 39 14 105 1 113 -5 3 -10 24
-10 46 0 22 -5 39 -11 39 -7 0 -9 -11 -5 -32z"/>
<path d="M3723 2587 c-10 -12 -28 -30 -41 -39 -13 -9 -19 -19 -13 -22 9 -6 81
61 81 77 0 12 -8 8 -27 -16z"/>
<path d="M6250 2600 c0 -12 42 -31 50 -23 6 5 -30 33 -42 33 -4 0 -8 -5 -8
-10z"/>
<path d="M5320 2591 c0 -5 5 -13 10 -16 6 -3 10 -2 10 4 0 5 -4 13 -10 16 -5
3 -10 2 -10 -4z"/>
<path d="M6410 2585 c0 -8 6 -15 14 -15 8 0 17 -6 19 -12 3 -7 6 -3 6 8 1 12
-6 25 -15 28 -22 9 -24 8 -24 -9z"/>
<path d="M4500 2581 c0 -17 18 -21 24 -6 3 9 0 15 -9 15 -8 0 -15 -4 -15 -9z"/>
<path d="M5823 2560 c-1 -11 2 -22 8 -25 5 -4 9 5 9 19 0 30 -15 35 -17 6z"/>
<path d="M3794 2549 c-9 -15 -2 -18 20 -9 17 6 18 7 3 13 -9 3 -19 2 -23 -4z"/>
<path d="M5337 2513 c4 -40 0 -55 -21 -86 -26 -38 -36 -66 -13 -36 7 8 19 18
28 21 20 8 31 58 23 109 -9 55 -22 49 -17 -8z"/>
<path d="M3959 2533 c-13 -16 -12 -17 4 -4 16 13 21 21 13 21 -2 0 -10 -8 -17
-17z"/>
<path d="M6533 2514 c-3 -8 -1 -20 6 -27 8 -8 11 -4 11 16 0 30 -7 35 -17 11z"/>
<path d="M3180 2501 c27 -22 40 -26 40 -12 0 5 -8 11 -17 15 -10 3 -25 9 -33
12 -8 3 -4 -4 10 -15z"/>
<path d="M552 2487 c-6 -7 -34 -19 -62 -26 -28 -7 -49 -15 -46 -18 8 -9 113
26 126 42 7 8 8 15 2 15 -5 0 -14 -6 -20 -13z"/>
<path d="M3576 2484 c-4 -9 -4 -19 -1 -22 3 -3 5 0 5 6 0 7 15 12 35 12 19 0
35 5 35 10 0 17 -67 12 -74 -6z"/>
<path d="M4463 2473 c-6 -16 6 -35 18 -28 5 4 13 14 18 23 8 14 5 18 -11 18
-11 0 -22 -6 -25 -13z"/>
<path d="M3230 2470 c0 -5 5 -10 11 -10 5 0 7 5 4 10 -3 6 -8 10 -11 10 -2 0
-4 -4 -4 -10z"/>
<path d="M3045 2460 c-3 -5 -1 -10 4 -10 6 0 11 5 11 10 0 6 -2 10 -4 10 -3 0
-8 -4 -11 -10z"/>
<path d="M3760 2460 c0 -5 7 -10 15 -10 8 0 15 5 15 10 0 6 -7 10 -15 10 -8 0
-15 -4 -15 -10z"/>
<path d="M3920 2466 c0 -2 9 -6 20 -9 11 -3 20 -1 20 4 0 5 -9 9 -20 9 -11 0
-20 -2 -20 -4z"/>
<path d="M5778 2452 c-10 -2 -18 -8 -18 -13 0 -13 27 -11 35 2 9 13 4 16 -17
11z"/>
<path d="M3561 2434 c0 -11 3 -14 6 -6 3 7 2 16 -1 19 -3 4 -6 -2 -5 -13z"/>
<path d="M4395 2420 c-3 -5 1 -10 9 -10 8 0 18 5 21 10 3 6 -1 10 -9 10 -8 0
-18 -4 -21 -10z"/>
<path d="M3935 2400 c-3 -5 1 -10 9 -10 8 0 18 5 21 10 3 6 -1 10 -9 10 -8 0
-18 -4 -21 -10z"/>
<path d="M2888 2393 c7 -3 16 -2 19 1 4 3 -2 6 -13 5 -11 0 -14 -3 -6 -6z"/>
<path d="M5685 2390 c3 -5 12 -7 20 -3 21 7 19 13 -6 13 -11 0 -18 -4 -14 -10z"/>
<path d="M6140 2390 c-24 -8 -23 -8 8 -9 20 -1 31 3 27 9 -3 6 -7 10 -8 9 -1
-1 -13 -5 -27 -9z"/>
<path d="M3515 2382 c-16 -2 -33 -9 -37 -15 -3 -6 -15 -11 -25 -12 -10 -1 -34
-4 -53 -6 -22 -2 -45 3 -60 14 -13 9 -32 17 -42 17 -17 0 -17 -2 -1 -34 12
-26 24 -36 50 -41 19 -3 41 -9 49 -12 8 -3 14 -1 14 5 0 5 -9 12 -20 15 -40
10 -20 27 33 27 l52 -1 -24 -20 c-32 -26 -24 -30 29 -17 45 12 65 28 73 60 6
22 0 25 -38 20z"/>
<path d="M6421 2334 c0 -11 3 -14 6 -6 3 7 2 16 -1 19 -3 4 -6 -2 -5 -13z"/>
<path d="M6260 2325 c0 -8 2 -15 4 -15 2 0 6 7 10 15 3 8 1 15 -4 15 -6 0 -10
-7 -10 -15z"/>
<path d="M5883 2290 c1 -11 5 -20 9 -20 4 0 8 9 8 20 0 11 -4 20 -9 20 -6 0
-9 -9 -8 -20z"/>
<path d="M6530 2300 c0 -6 -11 -15 -25 -20 -14 -5 -25 -14 -25 -20 0 -6 9 -6
26 0 14 6 30 7 35 4 6 -3 17 -3 25 0 12 5 12 9 -3 26 -19 22 -33 26 -33 10z"/>
<path d="M5466 2282 c-2 -4 4 -9 15 -9 11 -1 17 2 14 8 -7 11 -22 12 -29 1z"/>
<path d="M6115 2279 c-10 -15 1 -23 20 -15 9 3 13 10 10 16 -8 13 -22 13 -30
-1z"/>
<path d="M6000 2250 c0 -6 7 -10 15 -10 8 0 15 2 15 4 0 2 -7 6 -15 10 -8 3
-15 1 -15 -4z"/>
<path d="M6640 2249 c0 -6 -9 -9 -20 -6 -11 3 -20 2 -20 -2 0 -3 9 -12 20 -19
11 -7 20 -19 20 -27 0 -8 -9 -24 -20 -35 -19 -19 -33 -20 -205 -20 -102 0
-185 -4 -185 -9 0 -5 6 -14 13 -20 8 -6 21 -39 31 -73 49 -181 69 -218 174
-322 70 -69 78 -90 46 -117 -10 -9 -24 -6 -56 10 -24 12 -34 15 -24 6 22 -17
14 -20 -14 -5 -10 5 -21 23 -25 40 -7 30 -30 41 -37 18 -6 -17 -84 84 -118
152 -32 63 -36 67 -102 104 -55 31 -76 34 -33 6 30 -20 46 -70 22 -70 -8 0 -7
-3 2 -9 11 -7 9 -10 -8 -16 -14 -4 -31 0 -48 10 l-26 17 17 -23 c9 -13 16 -31
16 -41 0 -10 5 -18 10 -18 7 0 10 -20 7 -50 -3 -46 -2 -50 24 -55 22 -5 26
-10 23 -35 -2 -17 1 -30 6 -30 6 0 10 -9 10 -20 0 -11 -5 -20 -11 -20 -6 0 -9
-7 -5 -15 4 -10 -1 -15 -16 -15 -21 0 -21 0 -2 -19 13 -13 24 -16 36 -10 9 5
41 9 70 8 l53 0 -37 -17 c-21 -9 -38 -20 -38 -24 0 -12 18 -10 25 3 4 6 14 8
22 5 8 -3 27 1 43 9 31 16 82 20 94 8 4 -5 35 -8 69 -8 l62 0 0 -138 c0 -76
-3 -143 -7 -150 -4 -7 -8 7 -8 31 0 23 -2 42 -4 42 -3 0 -31 -15 -63 -34 l-58
-34 -180 -7 c-198 -8 -232 -8 -288 1 -30 5 -42 2 -53 -13 -15 -17 -15 -17 -11
5 4 15 -1 25 -13 32 -27 15 -30 13 -31 -17 0 -16 -3 -22 -6 -15 -9 22 -21 12
-19 -17 0 -19 5 -27 13 -24 7 3 10 9 7 14 -3 5 0 9 6 9 7 0 10 -6 7 -14 -3 -7
0 -19 6 -25 9 -9 8 -10 -7 -5 -13 5 -17 4 -12 -4 3 -6 2 -13 -4 -17 -5 -3 -10
1 -10 9 0 12 -11 16 -45 16 -25 0 -45 4 -45 9 0 5 -9 7 -20 4 -11 -3 -20 0
-20 6 0 5 6 8 14 5 18 -7 25 23 14 56 -6 16 -6 26 1 28 7 2 11 40 11 98 0 80
2 94 16 94 14 0 15 7 9 46 -6 42 -4 49 21 75 l28 29 -37 0 c-26 0 -37 4 -37
15 0 8 -7 15 -16 15 -14 0 -14 1 0 16 21 20 21 74 1 74 -8 0 -26 -11 -40 -25
l-25 -26 0 31 c0 16 3 29 8 28 4 0 14 1 22 4 8 4 43 12 78 18 50 10 61 16 58
29 -3 9 -8 30 -12 46 -10 41 -41 99 -64 120 -26 24 -25 69 2 105 17 23 19 32
9 44 -9 11 -8 17 4 29 8 9 15 17 15 20 0 2 -255 7 -567 10 -313 3 -707 11
-877 18 -298 11 -310 11 -323 -7 -8 -11 -12 -27 -9 -37 2 -11 2 -17 -1 -14 -2
3 -16 -4 -30 -16 -25 -22 -25 -22 -491 -19 l-467 3 -50 54 -50 54 -977 7
c-538 3 -978 4 -978 1 0 -2 7 -24 15 -47 8 -23 15 -44 15 -46 0 -1 -12 -4 -27
-6 -33 -4 -43 -27 -15 -35 23 -6 32 -28 22 -58 -4 -11 -10 -39 -14 -62 -5 -35
-3 -43 9 -43 8 0 15 -7 15 -16 0 -13 -3 -14 -15 -4 -12 10 -16 9 -21 -4 -12
-30 -59 -18 -110 29 -15 14 -30 25 -34 25 -4 0 -11 11 -14 24 -3 14 -15 28
-26 31 -11 3 -20 11 -20 16 0 5 -7 9 -15 9 -8 0 -15 7 -15 15 0 8 -8 15 -19
15 -10 0 -24 7 -31 15 -7 9 -19 14 -27 11 -18 -7 -17 9 2 24 20 17 19 30 -2
27 -28 -4 -43 -17 -54 -44 -5 -14 -12 -23 -15 -20 -11 10 -14 109 -4 127 8 16
-1 18 -112 23 -67 4 -181 7 -255 7 l-133 0 0 -134 0 -134 38 -10 37 -10 -37
-1 -38 -1 0 -955 0 -955 168 0 169 0 -5 32 c-5 35 13 29 20 -6 4 -26 25 -32
31 -9 4 17 5 17 6 1 1 -12 9 -18 25 -18 22 0 24 3 19 34 -3 20 -1 36 7 41 7 4
11 2 9 -6 -4 -34 2 -69 12 -69 8 0 10 17 7 51 -3 29 -2 45 3 37 5 -7 9 -30 9
-51 l0 -37 59 1 c57 2 59 3 69 33 l10 31 7 -32 c7 -29 11 -33 41 -33 21 0 34
5 34 13 0 7 3 8 8 2 4 -5 16 -10 27 -10 17 0 20 7 19 42 0 24 4 41 10 40 6 -1
13 9 16 23 2 15 7 -1 10 -40 l5 -65 618 -3 617 -2 0 45 c0 36 3 45 18 45 9 0
109 2 222 3 113 2 287 1 388 -2 100 -3 195 -3 211 2 16 4 43 24 59 45 24 30
30 48 32 97 5 112 2 135 -17 128 -17 -6 -17 -5 0 14 15 17 17 42 17 201 l0
181 138 3 137 3 9 113 9 112 44 0 c29 0 43 4 42 13 -1 6 0 37 1 67 2 47 3 51
10 25 5 -22 8 -7 9 52 1 65 -2 81 -12 77 -11 -4 -14 14 -16 87 -3 172 -11 104
-11 -93 l0 -196 -25 -4 c-34 -7 -51 15 -37 47 7 14 18 25 27 25 23 0 18 18 -7
23 l-23 4 23 2 c18 1 22 7 22 35 0 28 -4 35 -25 40 -33 8 -34 48 -2 64 l22 11
-23 0 c-19 1 -22 6 -19 29 3 18 9 26 21 24 9 -2 16 2 16 8 0 5 -3 9 -7 9 -24
-4 -33 4 -33 27 0 17 6 28 20 31 26 7 26 29 0 36 -18 5 -20 14 -20 96 0 54 -4
91 -10 91 -5 0 -10 7 -10 15 0 13 -22 15 -140 15 l-140 0 0 165 c0 91 3 165 8
165 16 0 34 42 23 53 -6 6 -11 14 -11 19 0 10 392 9 409 -1 8 -6 10 -14 5 -22
-6 -11 -5 -12 7 -3 8 7 46 15 84 19 73 8 384 7 397 -1 4 -3 8 -19 8 -37 1 -18
2 -106 3 -197 l2 -165 -97 0 c-60 -1 -102 -5 -109 -12 -7 -7 -11 -41 -10 -87
l2 -76 -36 0 c-35 0 -59 -24 -39 -39 11 -7 12 -166 2 -177 -5 -4 -8 1 -9 12
-1 15 -3 14 -10 -6 -6 -17 -8 -1 -6 53 1 42 -1 77 -5 77 -5 0 -8 -7 -8 -16 0
-9 -9 -27 -20 -41 -33 -42 -24 -223 12 -223 4 0 8 -8 8 -17 0 -14 2 -15 9 -5
5 9 14 -6 26 -44 16 -50 19 -55 26 -36 5 12 11 22 14 22 4 0 3 -4 0 -10 -3 -5
-1 -10 5 -10 6 0 9 -4 6 -9 -3 -5 1 -11 9 -15 11 -4 15 -20 15 -56 0 -27 4
-50 10 -50 5 0 10 -26 12 -57 l3 -58 81 -3 c76 -3 82 -4 95 -29 9 -17 14 -60
15 -122 1 -215 3 -235 19 -221 8 7 16 10 16 6 1 -3 2 -10 3 -15 0 -5 5 -13 10
-18 5 -5 6 -3 2 4 -4 7 -3 13 3 13 5 0 9 -12 7 -28 -1 -15 2 -33 7 -39 16 -21
-8 -15 -28 7 -20 22 -44 29 -28 8 17 -22 22 -56 8 -62 -19 -7 -7 -43 15 -49
15 -4 20 2 23 32 2 20 4 -4 5 -52 2 -87 2 -88 -20 -81 -23 6 -23 6 1 -20 34
-36 82 -59 95 -46 14 14 49 13 65 -2 8 -7 11 -8 8 -2 -4 7 20 11 76 11 45 1
125 4 178 8 63 5 126 3 185 -6 49 -7 106 -13 127 -13 32 0 37 -3 37 -23 l0
-23 154 0 c134 0 157 2 172 18 17 16 18 16 11 0 -4 -12 -2 -18 8 -18 10 0 15
11 15 33 l0 32 16 -32 16 -33 170 0 c142 0 169 2 165 14 -9 23 5 27 26 9 18
-17 63 -18 613 -21 l594 -2 1 22 c1 13 1 27 0 31 -1 4 8 3 19 -3 20 -11 20 -9
20 730 0 583 -3 740 -13 740 -9 0 -9 2 1 9 11 7 13 74 11 350 -3 316 -4 343
-21 361 -21 22 -38 26 -38 9z m-5473 -161 c-3 -8 -6 -5 -6 6 -1 11 2 17 5 13
3 -3 4 -12 1 -19z m80 0 c-3 -8 -6 -5 -6 6 -1 11 2 17 5 13 3 -3 4 -12 1 -19z
m100 0 c-3 -8 -6 -5 -6 6 -1 11 2 17 5 13 3 -3 4 -12 1 -19z m28 13 c3 -5 1
-12 -5 -16 -5 -3 -10 1 -10 9 0 18 6 21 15 7z m45 -13 c0 -6 -6 -5 -15 2 -8 7
-15 14 -15 16 0 2 7 1 15 -2 8 -4 15 -11 15 -16z m27 0 c-3 -8 -6 -5 -6 6 -1
11 2 17 5 13 3 -3 4 -12 1 -19z m2621 -45 c-10 -2 -26 -2 -35 0 -10 3 -2 5 17
5 19 0 27 -2 18 -5z m-2423 -33 c3 -5 -1 -10 -9 -10 -9 0 -16 5 -16 10 0 6 4
10 9 10 6 0 13 -4 16 -10z m740 0 c4 -6 -9 -10 -32 -9 -38 1 -38 1 -8 9 17 4
31 8 32 9 1 0 5 -3 8 -9z m-97 -7 c-15 -2 -42 -2 -60 0 -18 2 -6 4 27 4 33 0
48 -2 33 -4z m-308 -25 c0 -16 -3 -19 -11 -11 -6 6 -8 16 -5 22 11 17 16 13
16 -11z m17 -10 c-3 -7 -5 -2 -5 12 0 14 2 19 5 13 2 -7 2 -19 0 -25z m3213
-14 c0 -2 -9 -4 -20 -4 -11 0 -20 4 -20 9 0 5 9 7 20 4 11 -3 20 -7 20 -9z
m-3188 -24 c-2 -16 -6 -30 -8 -30 -2 0 -4 14 -4 30 0 17 4 30 8 30 5 0 7 -13
4 -30z m275 10 c-3 -11 -1 -23 5 -26 5 -3 12 3 15 15 3 12 12 21 19 21 10 0
14 -14 14 -50 0 -27 0 -53 -1 -56 0 -4 5 -11 13 -15 9 -6 15 -2 18 13 6 23 36
29 102 21 25 -4 38 -11 41 -24 5 -20 27 -27 27 -9 0 13 67 13 75 0 4 -6 10 -8
15 -5 5 3 20 1 34 -5 19 -7 25 -16 24 -35 -1 -14 -6 -25 -11 -25 -5 0 -7 7 -3
15 5 13 -31 15 -287 15 l-292 0 -3 58 c-4 95 0 103 58 101 45 -2 50 -5 50 -25
0 -13 5 -26 10 -29 6 -4 10 6 10 24 0 25 5 30 28 34 15 2 31 5 36 6 4 0 6 -8
3 -19z m-1803 -5 c3 -8 1 -15 -4 -15 -6 0 -10 7 -10 15 0 8 2 15 4 15 2 0 6
-7 10 -15z m216 -15 c19 -10 34 -22 34 -26 -15 -96 -15 -104 0 -104 9 0 29
-18 45 -40 l29 -40 15 42 c11 30 16 36 16 21 1 -13 3 -23 5 -23 2 0 11 -3 19
-6 10 -4 16 5 21 30 7 35 8 36 54 38 l47 1 -45 6 c-25 3 -46 11 -47 16 -1 6
52 9 148 7 140 -3 149 -4 149 -23 0 -18 -8 -19 -144 -19 l-144 0 -6 -26 c-5
-20 -2 -32 13 -46 12 -10 21 -25 21 -32 0 -7 13 -25 30 -41 16 -16 32 -42 35
-59 10 -54 12 -140 4 -168 -4 -15 -4 -28 1 -30 4 -2 10 -58 11 -126 3 -93 1
-122 -8 -122 -7 0 -13 5 -13 10 0 6 4 10 8 10 5 0 6 16 3 36 l-6 37 -159 -2
c-94 -1 -173 3 -192 9 -35 12 -43 25 -21 33 23 10 -17 27 -49 21 -20 -4 -35
-1 -39 7 -5 8 -4 10 3 5 7 -4 12 -3 12 3 0 6 15 7 35 4 28 -4 35 -2 35 11 0 9
-8 16 -18 16 -13 0 -18 7 -18 23 1 17 -7 24 -31 32 -31 8 -45 25 -23 25 11 0
9 28 -3 47 -4 7 -8 82 -8 167 0 136 -2 157 -17 165 -9 6 -12 11 -6 11 6 0 17
20 24 44 19 69 41 87 98 80 26 -4 63 -14 82 -24z m5963 18 c-13 -6 -24 -20
-24 -32 -1 -17 -2 -18 -6 -3 -3 11 -14 17 -31 17 -28 -1 -97 -28 -74 -29 6 -1
12 -11 11 -23 0 -21 -1 -21 -8 -4 -4 11 -10 15 -14 10 -10 -16 4 -54 19 -54
19 0 18 -39 -1 -46 -8 -4 -13 -9 -11 -13 2 -3 -1 -11 -8 -17 -9 -8 -15 -7 -24
3 -8 8 -9 13 -2 13 5 0 10 7 10 15 0 8 -4 15 -10 15 -14 0 0 92 16 110 8 8 45
22 82 31 79 20 106 22 75 7z m-6474 -54 c10 -9 -35 -3 -49 6 -11 8 -7 9 15 4
17 -4 32 -8 34 -10z m4828 -16 c52 14 61 10 77 -40 l11 -33 173 -3 c100 -1
172 -6 172 -12 0 -6 -110 -10 -280 -10 l-280 0 0 54 c0 49 2 55 23 58 12 2 30
-3 40 -11 15 -13 25 -13 64 -3z m-4790 6 c-3 -3 -12 -4 -19 -1 -8 3 -5 6 6 6
11 1 17 -2 13 -5z m910 -16 c-3 -8 -6 -5 -6 6 -1 11 2 17 5 13 3 -3 4 -12 1
-19z m-754 -9 c20 -5 37 -15 37 -21 0 -7 -5 -6 -15 2 -8 7 -44 15 -80 18 -36
2 -65 9 -65 15 0 10 56 4 123 -14z m1044 1 c13 0 13 -3 3 -15 -11 -13 -8 -15
19 -15 21 0 31 5 31 16 0 8 5 12 10 9 6 -4 7 -12 3 -18 -4 -7 0 -6 10 2 9 7
15 16 13 20 -5 8 216 8 229 -1 6 -3 34 -5 63 -4 42 2 55 -1 62 -15 6 -10 22
-20 37 -22 16 -2 -107 -4 -272 -4 -165 -1 -292 1 -282 4 9 2 14 9 11 15 -4 6
1 8 15 3 12 -4 21 -2 21 4 0 6 -3 10 -7 10 -5 -1 -15 -1 -23 0 -13 1 -13 2 0
11 8 5 21 8 28 5 8 -3 21 -5 29 -5z m1277 -16 c3 -8 2 -12 -4 -9 -6 3 -10 10
-10 16 0 14 7 11 14 -7z m3956 -5 c0 -6 -4 -7 -10 -4 -5 3 -10 11 -10 16 0 6
5 7 10 4 6 -3 10 -11 10 -16z m-2341 -29 c22 0 42 5 44 13 3 7 6 5 6 -5 1 -16
10 -17 94 -11 50 3 94 10 95 15 6 13 30 9 39 -6 5 -10 30 -16 73 -18 36 -2
-67 -5 -228 -6 -190 -1 -291 2 -287 8 3 6 30 10 60 10 50 0 53 1 49 23 l-5 22
10 -22 c8 -18 19 -23 50 -23z m1368 -7 c-3 -10 -5 -2 -5 17 0 19 2 27 5 18 2
-10 2 -26 0 -35z m-5224 30 c-7 -2 -19 -2 -25 0 -7 3 -2 5 12 5 14 0 19 -2 13
-5z m1532 -13 c3 -5 1 -10 -4 -10 -6 0 -11 5 -11 10 0 6 2 10 4 10 3 0 8 -4
11 -10z m3730 -20 c3 -5 1 -10 -4 -10 -6 0 -11 5 -11 10 0 6 2 10 4 10 3 0 8
-4 11 -10z m-4625 -10 c0 -5 -4 -10 -10 -10 -5 0 -10 5 -10 10 0 6 5 10 10 10
6 0 10 -4 10 -10z m13 -20 c19 0 27 -4 25 -12 -3 -7 -10 -13 -15 -13 -6 0 -20
-10 -30 -22 -17 -19 -21 -20 -50 -8 -17 7 -34 11 -36 8 -3 -2 -15 1 -27 7 -17
9 -19 14 -9 26 6 8 17 14 23 14 6 0 4 -4 -4 -10 -12 -8 -12 -10 3 -16 12 -4
24 0 35 15 11 14 24 20 37 16 11 -2 33 -5 48 -5z m1336 6 c-2 -2 -20 -7 -39
-10 -19 -3 -50 -10 -67 -15 -20 -6 -35 -6 -38 0 -4 5 6 9 22 10 15 0 37 4 48
9 20 9 82 14 74 6z m-839 -14 c0 -13 -12 -22 -22 -16 -10 6 -1 24 13 24 5 0 9
-4 9 -8z m675 -2 c4 -6 -7 -10 -27 -9 -31 1 -32 1 -8 9 14 4 26 8 27 9 1 1 5
-3 8 -9z m-717 -22 c-5 -15 -23 -11 -26 6 -2 11 2 14 13 10 9 -4 14 -11 13
-16z m85 9 c4 3 7 2 7 -4 0 -11 36 -11 46 0 13 12 24 7 24 -10 0 -13 3 -14 8
-5 6 8 24 10 59 7 38 -4 55 -1 67 10 19 19 56 19 56 0 0 -8 -7 -15 -15 -15 -8
0 -15 -9 -15 -20 0 -11 -5 -20 -11 -20 -6 0 -8 9 -4 20 13 41 -5 17 -41 -55
-21 -41 -44 -75 -52 -75 -9 0 -12 6 -8 18 5 14 4 14 -9 -2 -22 -29 -18 -3 6
38 12 20 25 33 30 30 5 -3 9 2 9 10 0 9 6 16 13 16 8 0 8 3 -2 9 -8 5 -20 7
-27 4 -6 -2 -15 0 -18 6 -8 12 -61 -2 -79 -21 -11 -11 -37 -63 -37 -73 0 -2
10 -1 23 1 12 2 15 1 7 -2 -8 -4 -18 -12 -22 -18 -5 -8 -11 -7 -19 1 -14 14 0
51 35 91 11 12 18 22 15 23 -2 0 -12 2 -22 4 -11 2 -22 -5 -29 -20 -6 -14 -15
-22 -20 -19 -5 3 -2 14 7 24 11 12 13 20 6 25 -12 7 -58 -81 -48 -91 4 -4 15
-1 24 7 16 13 17 12 5 -3 -8 -10 -11 -26 -7 -38 4 -11 2 -20 -4 -20 -6 0 -11
-12 -11 -27 l0 -27 -16 22 c-9 13 -13 29 -10 37 6 17 -6 25 -48 36 l-31 7 37
1 c28 1 38 6 43 22 4 11 16 41 27 66 15 33 23 42 32 34 7 -6 16 -8 19 -4z
m562 3 c-3 -5 -10 -10 -16 -10 -5 0 -9 5 -9 10 0 6 7 10 16 10 8 0 12 -4 9
-10z m390 0 c3 -5 -1 -10 -10 -10 -9 0 -13 5 -10 10 3 6 8 10 10 10 2 0 7 -4
10 -10z m4075 1 c0 -9 -97 -31 -136 -31 -13 0 -28 -8 -33 -17 -9 -16 -10 -16
-11 3 0 19 9 23 77 33 42 6 79 14 82 16 7 8 21 6 21 -4z m-5158 -23 c-7 -7
-12 -8 -12 -2 0 6 3 14 7 17 3 4 9 5 12 2 2 -3 -1 -11 -7 -17z m956 -53 c13
-38 28 -74 33 -80 6 -5 32 -10 60 -10 42 0 49 3 49 20 0 11 5 27 10 35 8 11 9
9 5 -10 -6 -27 2 -44 25 -53 8 -3 -112 -6 -267 -6 -183 -1 -283 3 -283 9 0 6
4 10 9 10 5 0 12 8 14 18 3 12 5 10 6 -7 1 -20 3 -21 16 -11 8 7 22 10 30 6
10 -4 15 1 15 14 0 10 5 22 10 25 6 4 10 -5 10 -19 0 -14 5 -26 11 -26 5 0 8
4 5 9 -8 13 4 42 15 35 5 -3 10 -17 10 -32 1 -27 1 -27 8 3 3 17 11 28 16 25
6 -3 9 -9 7 -14 -2 -5 0 -16 4 -25 5 -12 9 -9 13 13 3 17 11 29 16 28 10 -2
11 -6 14 -37 0 -8 9 -15 20 -15 16 0 17 5 11 38 -3 20 -12 47 -18 59 -16 28
-15 33 3 33 8 0 15 5 15 11 0 5 4 8 9 5 5 -3 12 1 15 10 4 10 15 14 33 12 24
-3 30 -11 51 -73z m2473 -16 c-12 -60 -9 -82 8 -63 8 8 20 88 21 134 0 12 12
14 52 13 29 -2 72 -3 96 -3 42 -1 42 -1 43 -38 0 -32 1 -34 9 -14 14 34 23 26
16 -13 -6 -28 -4 -35 9 -35 8 0 15 4 15 10 0 5 7 7 15 4 8 -4 15 -2 15 4 0 6
3 19 6 29 5 16 4 16 -10 -1 -18 -23 -20 -18 -6 18 8 22 14 25 42 22 18 -3 37
-5 42 -5 4 -1 1 -12 -8 -26 -25 -39 -19 -42 14 -5 27 30 31 32 58 21 27 -11
71 -9 126 6 16 4 17 1 11 -26 -4 -20 -3 -31 5 -31 6 0 16 -13 21 -30 6 -16 17
-30 25 -30 8 0 14 -4 14 -9 0 -6 -8 -10 -17 -9 -27 0 -216 -31 -281 -46 -31
-8 -78 -16 -104 -19 l-48 -5 0 55 c0 39 -4 53 -12 50 -7 -2 -14 -17 -14 -33
-1 -16 -2 -41 -3 -55 -1 -24 -5 -26 -45 -27 -52 0 -70 -8 -62 -28 8 -20 -1
-17 -26 8 -14 14 -21 32 -20 55 1 23 -3 33 -11 30 -12 -4 -14 -10 -16 -59 -1
-16 -7 -28 -15 -28 -9 0 -15 20 -20 61 -11 114 -5 206 14 194 5 -3 12 0 15 6
5 7 12 6 23 -5 14 -14 14 -23 3 -77z m-229 52 c4 -48 5 -118 1 -133 -3 -15
-15 -18 -61 -18 -47 0 -53 2 -40 13 9 6 24 39 34 72 9 33 20 68 25 77 11 20
38 13 41 -11z m-3132 9 c0 -5 -5 -10 -11 -10 -5 0 -7 5 -4 10 3 6 8 10 11 10
2 0 4 -4 4 -10z m1060 0 c0 -5 -7 -10 -16 -10 -8 0 -12 5 -9 10 3 6 10 10 16
10 5 0 9 -4 9 -10z m-1427 -18 c6 -5 21 -12 32 -15 18 -4 18 -5 -2 -6 -21 -1
-23 -6 -23 -53 0 -34 -3 -48 -9 -39 -6 9 -11 10 -15 2 -5 -8 -11 -7 -21 2 -10
9 -10 15 -1 26 9 12 8 13 -3 7 -9 -6 -12 -5 -9 5 3 8 11 13 18 11 11 -2 11 0
0 13 -11 13 -11 18 -1 25 17 10 0 21 -27 15 -11 -2 -23 2 -25 9 -6 15 67 13
86 -2z m954 2 c-3 -3 -12 -4 -19 -1 -8 3 -5 6 6 6 11 1 17 -2 13 -5z m53 -7
c0 5 14 10 30 10 52 0 34 -24 -20 -26 -46 -1 -60 6 -43 22 3 4 12 2 20 -4 7
-6 13 -7 13 -2z m100 -2 c0 -8 -4 -15 -10 -15 -5 0 -10 7 -10 15 0 8 5 15 10
15 6 0 10 -7 10 -15z m-195 -5 c3 -5 1 -10 -4 -10 -6 0 -11 5 -11 10 0 6 2 10
4 10 3 0 8 -4 11 -10z m2085 -90 c11 -11 41 -19 83 -23 55 -5 66 -4 72 11 5
14 7 14 15 2 10 -16 9 -16 129 -18 152 -3 79 -12 -141 -16 l-216 -5 -6 31 c-3
17 -6 51 -6 77 l0 46 26 -44 c15 -24 34 -51 44 -61z m-3970 74 c0 -8 -4 -12
-10 -9 -5 3 -10 10 -10 16 0 5 5 9 10 9 6 0 10 -7 10 -16z m815 -31 c7 -51 2
-63 -25 -56 -14 4 -20 14 -20 32 0 14 -3 36 -6 47 -5 19 -2 22 19 20 22 -1 26
-7 32 -43z m324 21 c39 -15 71 -30 71 -36 0 -5 -9 -4 -20 2 -17 9 -20 8 -20
-10 0 -11 5 -20 10 -20 6 0 9 -17 9 -37 -1 -21 -4 -29 -6 -19 -3 11 -8 14 -12
9 -3 -6 -28 -9 -58 -6 l-53 6 -1 41 c0 22 -2 53 -4 69 -2 15 0 27 5 27 5 0 41
-12 79 -26z m-996 6 c9 0 10 -40 0 -40 -3 0 -14 7 -23 15 -9 8 -34 19 -56 24
-37 10 -37 10 16 6 30 -2 58 -4 63 -5z m5239 -15 c-2 -14 -6 -25 -8 -25 -2 0
-4 11 -4 25 0 14 4 25 9 25 4 0 6 -11 3 -25z m-3912 -5 c0 -5 -5 -10 -11 -10
-5 0 -7 5 -4 10 3 6 8 10 11 10 2 0 4 -4 4 -10z m159 -36 c-6 -8 -10 -14 -8
-15 2 0 12 -2 22 -4 33 -6 32 -15 -1 -15 -18 0 -32 3 -32 8 1 23 14 51 22 46
5 -3 4 -12 -3 -20z m-599 6 c0 -5 -7 -10 -15 -10 -8 0 -15 5 -15 10 0 6 7 10
15 10 8 0 15 -4 15 -10z m1290 -10 c0 -5 -5 -10 -11 -10 -5 0 -7 5 -4 10 3 6
8 10 11 10 2 0 4 -4 4 -10z m-2320 -4 c0 -3 -4 -8 -10 -11 -5 -3 -10 -1 -10 4
0 6 5 11 10 11 6 0 10 -2 10 -4z m150 -6 c0 -5 -8 -10 -17 -10 -15 0 -16 2 -3
10 19 12 20 12 20 0z m1101 -35 c7 -46 7 -47 -14 -40 -16 7 -28 50 -20 72 10
25 28 7 34 -32z m59 -16 c0 -16 -3 -18 -19 -7 -15 9 -17 16 -9 25 13 16 28 7
28 -18z m2380 -13 c0 -26 -6 -48 -15 -56 -17 -14 -18 -11 -15 45 2 44 6 55 21
55 5 0 9 -20 9 -44z m-3690 25 c0 -6 -4 -13 -10 -16 -5 -3 -10 1 -10 9 0 9 5
16 10 16 6 0 10 -4 10 -9z m150 -36 c0 -16 -6 -25 -15 -25 -18 0 -18 5 -5 31
14 26 20 24 20 -6z m3463 -16 c5 -17 -1 -19 -44 -19 -44 0 -49 2 -49 23 0 20
4 22 44 19 33 -3 45 -9 49 -23z m1447 2 c0 -6 -4 -13 -10 -16 -5 -3 -10 1 -10
9 0 9 5 16 10 16 6 0 10 -4 10 -9z m-3706 -54 c1 -37 -2 -47 -15 -47 -13 0
-17 10 -17 51 0 40 3 49 16 47 11 -2 16 -16 16 -51z m1393 47 c-3 -3 -12 -4
-19 -1 -8 3 -5 6 6 6 11 1 17 -2 13 -5z m-1199 -95 c46 -99 50 -114 26 -105
-8 3 -24 1 -34 -4 -16 -8 -20 -5 -26 23 -4 17 -7 36 -5 41 1 5 -4 13 -11 17
-12 7 -21 96 -11 112 10 17 21 2 61 -84z m112 81 c16 -9 18 -15 10 -36 -13
-32 -13 -94 -1 -94 5 0 8 -12 6 -27 -2 -16 -4 -31 -4 -35 -1 -5 -15 -8 -32 -8
l-32 0 7 61 c3 34 6 82 6 105 0 45 7 51 40 34z m2812 1 c10 -1 8 -171 -3 -198
-8 -23 -11 -23 -176 -22 -93 0 -162 3 -155 6 6 2 12 15 12 28 0 13 5 25 11 27
6 2 19 28 30 58 20 58 31 70 66 70 13 0 36 8 51 18 25 15 103 21 164 13z
m-1582 -23 c0 -5 -5 -8 -11 -8 -5 0 -17 -17 -26 -37 -9 -21 -18 -32 -20 -25
-3 6 -10 9 -16 5 -20 -13 -123 -16 -112 -4 6 6 24 12 39 13 21 2 33 11 43 33
13 27 19 30 59 30 24 0 44 -3 44 -7z m510 -11 c0 -7 -6 -19 -12 -25 -10 -10
-10 -15 2 -22 8 -5 11 -10 7 -10 -4 0 -2 -10 4 -22 10 -18 8 -24 -7 -35 -17
-12 -17 -13 0 -13 13 0 16 -5 10 -22 -3 -13 -11 -24 -15 -26 -15 -6 -10 -22 6
-22 21 0 19 -46 -2 -54 -15 -6 -15 -7 1 -19 20 -15 16 -63 -6 -61 -10 1 -13
-8 -10 -32 3 -21 0 -34 -7 -34 -8 0 -11 60 -11 201 0 149 -3 198 -12 193 -7
-4 -8 -3 -4 4 10 16 56 15 56 -1z m1255 3 c3 -5 1 -10 -4 -10 -6 0 -11 5 -11
10 0 6 2 10 4 10 3 0 8 -4 11 -10z m75 6 c0 -3 -4 -8 -10 -11 -5 -3 -10 -1
-10 4 0 6 5 11 10 11 6 0 10 -2 10 -4z m-1950 -10 c0 -11 -19 -15 -25 -6 -3 5
1 10 9 10 9 0 16 -2 16 -4z m2027 -28 c-3 -8 -6 -5 -6 6 -1 11 2 17 5 13 3 -3
4 -12 1 -19z m-3977 2 c0 -12 -8 -12 -35 0 -18 8 -17 9 8 9 15 1 27 -3 27 -9z
m3851 -72 c-1 -40 -6 -79 -10 -87 -5 -7 -5 -29 -1 -47 7 -28 5 -34 -9 -34 -12
0 -18 10 -19 35 -2 19 1 35 6 35 5 0 7 17 3 38 -8 48 -2 104 10 97 5 -4 9 6 9
21 0 15 3 24 7 21 3 -4 5 -39 4 -79z m570 56 c11 -10 15 -28 13 -60 -2 -32 1
-44 9 -41 8 3 11 23 10 56 -1 28 2 51 7 51 23 0 40 -14 40 -34 0 -17 -2 -18
-10 -6 -13 21 -12 6 2 -25 10 -22 9 -28 -10 -41 -12 -8 -22 -23 -23 -32 0 -14
-2 -14 -8 2 -11 29 -20 7 -22 -53 -1 -28 -6 -51 -11 -51 -4 0 -8 -4 -8 -10 0
-5 7 -6 17 -3 10 4 14 2 10 -4 -7 -12 -52 -11 -80 2 -27 12 -104 -3 -104 -20
0 -8 5 -15 11 -15 7 0 7 -3 0 -8 -7 -4 -14 -16 -16 -27 -5 -19 -6 -18 -15 4
-7 17 -12 21 -17 12 -6 -9 -11 -9 -24 1 -13 11 -15 10 -10 -14 4 -20 1 -28 -8
-28 -8 0 -15 12 -15 28 -1 15 -2 36 -3 47 -1 17 -9 21 -48 23 -41 3 -48 0 -48
-15 0 -10 -9 -24 -20 -31 -16 -10 -18 -16 -10 -32 10 -18 8 -19 -20 -14 -19 4
-30 2 -30 -5 0 -6 3 -11 8 -12 44 -4 54 -10 43 -27 -6 -10 -27 -11 -86 -5 -88
9 -86 7 -75 93 l7 55 2 -47 c1 -49 9 -62 30 -49 10 7 10 9 -1 14 -10 3 -14 19
-12 46 1 29 -2 41 -12 41 -11 0 -14 21 -13 100 1 90 4 102 25 125 23 25 24 25
24 4 0 -15 5 -19 15 -15 8 3 15 1 15 -4 0 -6 -6 -10 -12 -11 -10 0 -10 -2 0
-6 6 -2 12 -12 13 -21 0 -13 2 -13 8 3 5 11 6 26 4 33 -3 6 -1 12 5 12 7 0 9
-42 6 -122 -4 -88 -2 -119 5 -108 6 8 11 63 11 123 0 101 1 107 20 107 17 0
20 -6 18 -31 -1 -17 -5 -32 -8 -34 -3 -2 -4 -37 -2 -79 3 -64 6 -76 21 -76 15
0 18 13 20 107 1 59 3 108 4 109 1 1 35 4 75 8 l73 6 -1 -72 c-1 -40 2 -84 8
-98 8 -21 11 -9 18 65 5 50 8 95 8 100 -1 6 7 12 17 12 21 2 25 -12 8 -23 -6
-3 -9 -14 -6 -24 2 -9 0 -25 -5 -34 -6 -10 -5 -16 2 -16 7 0 6 -6 -2 -19 -9
-15 -8 -22 5 -36 10 -9 14 -21 11 -27 -4 -7 -9 -6 -14 2 -5 9 -9 9 -14 1 -4
-6 0 -14 8 -17 11 -4 14 -14 10 -30 -4 -17 -2 -24 9 -24 11 0 14 18 15 95 0
65 -3 95 -11 95 -8 0 -8 3 1 12 7 7 12 22 12 34 0 20 6 23 43 26 49 4 66 0 88
-18z m77 19 c-10 -2 -26 -2 -35 0 -10 3 -2 5 17 5 19 0 27 -2 18 -5z m-4347
-53 c1 -25 3 -74 4 -110 2 -35 -1 -73 -5 -84 -6 -18 -7 -17 -14 7 -4 16 -13
27 -24 27 -11 0 -13 3 -6 8 19 12 27 51 12 57 -22 9 -21 63 2 82 23 20 27 38
6 30 -8 -3 -17 0 -19 8 -7 17 -3 21 23 21 17 0 20 -7 21 -46z m1057 38 c-5
-14 -138 -21 -138 -7 0 9 22 13 94 17 36 2 47 0 44 -10z m42 -3 c0 -8 -4 -15
-10 -15 -5 0 -10 7 -10 15 0 8 5 15 10 15 6 0 10 -7 10 -15z m50 6 c0 -14 -18
-23 -30 -16 -6 4 -8 11 -5 16 8 12 35 12 35 0z m-942 -10 c9 -1 12 -32 12
-121 0 -116 -7 -141 -29 -102 -9 15 -10 15 -11 -5 0 -33 10 -52 26 -46 10 3
14 -2 13 -18 0 -13 -3 -19 -5 -12 -3 7 -12 9 -20 6 -7 -3 -11 -10 -8 -15 4 -6
1 -8 -7 -6 -8 3 -12 12 -10 19 2 8 3 23 2 34 -1 11 -2 34 -4 51 -1 20 -6 30
-14 27 -6 -3 -10 -10 -7 -17 3 -7 0 -23 -5 -37 -5 -13 -10 -18 -10 -11 -1 6
-9 12 -19 12 -14 0 -19 9 -20 43 -1 23 -5 58 -8 78 -4 25 -1 41 9 50 12 12 12
15 -1 25 -9 7 -12 18 -7 33 6 20 12 21 58 17 29 -3 58 -5 65 -5z m702 -1 c0
-5 -7 -10 -15 -10 -8 0 -15 5 -15 10 0 6 7 10 15 10 8 0 15 -4 15 -10z m3494
-83 c-3 -10 1 -20 10 -23 9 -3 16 -10 16 -15 0 -4 -7 -6 -15 -3 -8 4 -15 1
-15 -5 0 -6 -5 -11 -10 -11 -11 0 -12 127 -1 145 7 13 21 -65 15 -88z m-3209
69 c8 -7 11 -16 8 -19 -8 -8 -43 11 -43 23 0 14 19 12 35 -4z m4203 -15 c-2
-17 -2 -29 1 -28 3 1 7 -1 9 -5 1 -5 0 -8 -3 -8 -3 0 -10 0 -16 0 -6 0 -8 13
-5 33 5 39 5 37 12 37 4 0 4 -13 2 -29z m-5109 -16 c1 24 6 31 21 31 21 0 21
4 24 -151 1 -48 4 -60 19 -63 14 -3 26 -22 13 -22 -15 0 -66 24 -66 32 0 5 5
6 10 3 6 -3 10 3 10 14 0 12 -4 21 -9 21 -5 0 -12 15 -16 33 -4 17 -9 26 -12
20 -11 -30 -19 -9 -17 45 2 76 5 84 14 42 l7 -35 2 30z m954 -20 c24 -27 43
-31 137 -35 39 -1 49 -4 35 -9 -19 -8 -18 -9 5 -13 14 -3 -108 -5 -270 -4
-232 0 -250 1 -82 3 130 2 212 7 212 13 0 6 -5 10 -12 10 -14 0 -58 40 -58 52
0 13 8 9 33 -17z m560 -22 c2 -21 2 -42 -1 -47 -8 -14 -32 25 -32 50 0 12 -6
25 -12 27 -7 3 -1 6 13 6 24 1 27 -4 32 -36z m845 0 l-3 -38 -55 0 -55 0 -3
38 -3 37 61 0 61 0 -3 -37z m408 28 c5 -5 20 -11 34 -13 18 -2 26 -10 29 -28
1 -14 8 -28 15 -32 6 -4 -41 -7 -104 -7 -95 0 -111 2 -90 12 14 6 28 16 32 22
5 7 8 6 8 -1 0 -7 9 -14 20 -17 17 -4 21 1 26 34 7 40 13 46 30 30z m-3206
-23 c0 -19 -2 -20 -10 -8 -13 19 -13 30 0 30 6 0 10 -10 10 -22z m670 2 c6
-11 8 -26 4 -32 -5 -8 -10 -5 -15 8 -16 41 -8 59 11 24z m1320 10 c0 -5 -2
-10 -4 -10 -3 0 -8 5 -11 10 -3 6 -1 10 4 10 6 0 11 -4 11 -10z m2556 -107
c-10 -19 -12 -20 -18 -5 -11 27 -9 31 10 29 15 -1 17 -5 8 -24z m-1750 -40
c-11 -11 -19 6 -11 24 8 17 8 17 12 0 3 -10 2 -21 -1 -24z m-888 -16 c3 -32 0
-37 -19 -37 -17 0 -20 4 -15 23 3 12 6 30 6 40 0 34 25 11 28 -26z m352 39 c0
-3 -4 -8 -10 -11 -5 -3 -10 -1 -10 4 0 6 5 11 10 11 6 0 10 -2 10 -4z m-2457
-45 c21 -7 36 -18 34 -24 -6 -20 -56 -25 -177 -17 -127 8 -173 20 -77 20 37 0
67 6 87 18 34 21 77 22 133 3z m317 -7 c0 -8 -4 -12 -10 -9 -5 3 -10 10 -10
16 0 5 5 9 10 9 6 0 10 -7 10 -16z m318 -19 c1 -21 -3 -33 -8 -30 -12 8 -13
65 -2 65 5 0 9 -16 10 -35z m707 25 c22 0 23 -1 18 -89 -3 -62 -1 -91 7 -96 7
-4 34 -8 61 -8 27 0 49 -5 49 -10 0 -8 -182 -9 -232 0 l-28 5 0 98 0 99 38 4
c20 2 43 2 50 0 8 -2 24 -3 37 -3z m1643 -8 c2 -7 -3 -12 -12 -12 -9 0 -16 7
-16 16 0 17 22 14 28 -4z m-2074 1 c4 -5 23 -8 42 -8 19 0 34 3 34 8 0 14 25
7 37 -12 10 -16 9 -20 -3 -25 -9 -4 -12 -11 -8 -18 16 -25 11 -48 -9 -48 -16
0 -17 3 -8 14 8 10 9 16 1 21 -5 3 -10 1 -10 -4 0 -6 -8 -11 -17 -11 -16 0
-16 -2 -3 -11 13 -9 13 -10 0 -6 -8 2 -16 16 -18 30 -2 15 -10 27 -18 27 -8 0
-14 5 -14 11 0 5 -4 8 -9 5 -5 -3 -8 -22 -6 -41 4 -45 -11 -46 -19 0 -5 24
-11 33 -21 28 -24 -9 -17 21 8 33 29 15 32 15 41 7z m3103 -30 c-3 -10 -5 -4
-5 12 0 17 2 24 5 18 2 -7 2 -21 0 -30z m313 2 c0 -14 -4 -25 -10 -25 -5 0
-10 11 -10 25 0 14 5 25 10 25 6 0 10 -11 10 -25z m986 9 c30 -8 54 -19 54
-23 0 -4 -18 -13 -40 -20 -33 -10 -60 -34 -60 -55 0 -14 74 -47 140 -62 68
-15 73 -18 50 -27 -14 -6 -117 -12 -230 -15 -184 -3 -207 -2 -220 13 -16 19
-4 31 42 41 38 9 60 37 56 71 -2 20 -9 29 -25 31 -13 2 -23 10 -23 18 0 40
156 57 256 28z m-3910 -5 c10 -17 -13 -36 -27 -22 -12 12 -4 33 11 33 5 0 12
-5 16 -11z m52 -12 c2 -10 -3 -17 -12 -17 -10 0 -16 9 -16 21 0 24 23 21 28
-4z m65 3 c-3 -11 -12 -20 -19 -20 -8 0 -14 9 -14 20 0 13 7 20 19 20 14 0 18
-5 14 -20z m1817 -52 c11 -40 23 -81 26 -90 6 -21 8 -21 52 -9 22 7 32 6 32
-2 0 -8 3 -8 11 0 6 6 18 9 25 6 9 -3 14 2 15 13 0 11 3 14 6 7 6 -17 33 -17
33 0 0 7 9 13 20 13 11 0 20 -7 20 -16 0 -13 1 -13 10 0 8 12 10 10 10 -10 0
-20 2 -22 11 -10 8 11 12 12 16 3 2 -7 17 -13 33 -13 32 0 41 20 33 79 -3 24
-1 41 7 46 16 10 90 13 90 3 0 -4 -9 -8 -20 -8 -27 0 -25 -24 4 -47 12 -10 25
-33 28 -51 l5 -32 -101 -1 c-56 0 -170 -2 -254 -5 -137 -5 -151 -4 -146 11 4
10 2 15 -7 13 -7 -2 -15 5 -17 16 -3 13 0 16 8 11 10 -6 11 -1 5 21 -13 48
-22 114 -17 119 3 3 13 5 23 5 13 0 23 -19 39 -72z m-1592 46 c6 -1 19 -2 27
-2 15 -2 22 -32 7 -32 -4 0 -25 -24 -47 -54 -46 -64 -62 -67 -19 -4 46 67 49
75 20 48 -15 -13 -36 -39 -47 -57 -12 -18 -25 -33 -30 -33 -5 0 7 23 26 52 20
28 33 58 30 66 -6 17 5 38 14 26 3 -5 12 -9 19 -10z m2902 2 c0 -3 -4 -8 -10
-11 -5 -3 -10 -1 -10 4 0 6 5 11 10 11 6 0 10 -2 10 -4z m957 -18 c-3 -8 -6
-5 -6 6 -1 11 2 17 5 13 3 -3 4 -12 1 -19z m-3927 -2 c0 -8 -9 -18 -21 -21
-14 -5 -19 -13 -16 -26 7 -26 -2 -24 -13 4 -8 18 -9 17 -4 -10 3 -18 3 -46 -1
-63 -6 -29 -9 -30 -61 -30 -30 0 -54 1 -54 3 0 1 7 24 15 51 8 27 15 62 15 78
l0 28 70 0 c54 0 70 -3 70 -14z m-1720 -6 c0 -5 -8 -10 -17 -10 -15 0 -16 2
-3 10 19 12 20 12 20 0z m4944 4 c15 -6 23 -34 10 -34 -7 0 -34 27 -34 34 0 8
5 7 24 0z m-1324 -25 c0 8 2 12 5 9 8 -7 -5 -38 -16 -38 -5 0 -9 10 -9 23 0
18 2 19 10 7 8 -12 10 -12 10 -1z m-1430 -9 c0 -5 -5 -10 -11 -10 -5 0 -7 5
-4 10 3 6 8 10 11 10 2 0 4 -4 4 -10z m65 0 c-3 -5 -15 -10 -25 -10 -10 0 -22
5 -25 10 -4 6 7 10 25 10 18 0 29 -4 25 -10z m702 -20 c9 -23 18 -30 37 -30
14 0 26 -4 26 -10 0 -5 -6 -10 -14 -10 -8 0 -22 -3 -30 -6 -12 -4 -20 4 -31
30 -17 39 -19 56 -7 56 4 0 13 -13 19 -30z m1126 23 c-7 -2 -19 -2 -25 0 -7 3
-2 5 12 5 14 0 19 -2 13 -5z m847 -3 c0 -5 -2 -10 -4 -10 -3 0 -8 5 -11 10 -3
6 -1 10 4 10 6 0 11 -4 11 -10z m-4921 -17 c5 -10 29 -25 53 -33 53 -19 62
-45 17 -54 -41 -8 -191 -8 -307 0 -67 5 -92 11 -92 20 0 9 13 14 38 14 22 0
77 13 123 29 134 46 154 49 168 24z m2141 3 c0 -9 -7 -12 -20 -9 -11 3 -20 9
-20 14 0 5 9 9 20 9 11 0 20 -6 20 -14z m1290 -66 c0 -12 -20 -14 -21 -2 -1
13 -7 37 -14 57 -4 11 2 5 14 -13 12 -18 21 -37 21 -42z m957 56 c-3 -8 2 -16
14 -19 12 -3 22 0 26 9 7 18 21 18 39 -1 19 -19 43 -19 50 -1 3 8 13 12 25 9
10 -3 16 -9 13 -14 -3 -5 0 -9 5 -9 6 0 11 5 11 11 0 8 4 8 13 2 6 -6 24 -13
40 -17 15 -3 27 -11 27 -17 0 -6 5 -7 10 -4 6 3 10 1 10 -5 0 -11 -59 -10 -66
2 -2 3 -20 4 -39 1 -19 -3 -40 -1 -47 4 -13 10 -88 10 -105 0 -5 -3 -27 0 -49
8 -21 8 -47 14 -56 15 -11 0 -18 8 -18 20 0 17 7 20 51 20 40 0 50 -3 46 -14z
m-2220 -18 c-3 -8 -6 -5 -6 6 -1 11 2 17 5 13 3 -3 4 -12 1 -19z m-1560 6 c-3
-3 -12 -4 -19 -1 -8 3 -5 6 6 6 11 1 17 -2 13 -5z m3040 -26 c-3 -7 -5 -2 -5
12 0 14 2 19 5 13 2 -7 2 -19 0 -25z m-3248 8 c-11 -9 -69 -15 -64 -6 3 6 20
10 37 10 17 0 29 -2 27 -4z m4521 -6 c0 -5 -2 -10 -4 -10 -3 0 -8 5 -11 10 -3
6 -1 10 4 10 6 0 11 -4 11 -10z m-37 -10 c21 0 23 -26 1 -34 -24 -9 -62 -7
-69 4 -3 6 -19 10 -36 10 -16 0 -29 5 -29 11 0 6 7 9 15 5 8 -3 25 -1 37 4 13
5 32 7 43 5 11 -3 28 -5 38 -5z m-4789 -68 c5 -8 -77 -22 -316 -55 -54 -8 -98
-11 -98 -6 0 4 39 12 88 18 48 7 119 18 157 26 63 14 98 19 147 24 9 0 19 -3
22 -7z m2053 -59 c-3 -10 -5 -2 -5 17 0 19 2 27 5 18 2 -10 2 -26 0 -35z m868
12 c0 -29 -2 -30 -46 -33 -44 -3 -47 -1 -52 25 -7 39 -1 44 51 41 44 -3 46 -5
47 -33z m2271 15 c33 -6 84 -10 112 -10 27 0 57 -3 66 -6 24 -9 19 -24 -8 -24
-13 0 -32 -3 -41 -6 -13 -6 -14 -9 -3 -16 19 -13 -82 -1 -271 32 -75 14 -114
27 -108 37 7 10 175 5 253 -7z m-3119 -42 c-2 -13 -4 -5 -4 17 -1 22 1 32 4
23 2 -10 2 -28 0 -40z m3453 12 c8 -5 11 -10 5 -10 -5 0 -17 5 -25 10 -8 5
-10 10 -5 10 6 0 17 -5 25 -10z m-2270 -41 c0 -23 -7 -47 -15 -55 -13 -14 -15
-9 -15 40 0 43 3 56 15 56 11 0 15 -11 15 -41z m83 17 c-1 -13 2 -15 10 -7 6
6 17 11 24 11 15 0 18 -29 3 -31 -5 -1 -16 -2 -22 -3 -9 -1 -15 -30 -18 -94
-4 -77 -3 -92 10 -92 34 1 40 17 46 123 l7 107 45 0 44 0 -7 -115 -7 -114 48
2 49 2 3 50 c2 28 10 70 18 94 11 32 12 47 3 57 -8 10 -5 15 14 19 37 10 61 2
65 -19 3 -14 0 -17 -12 -13 -9 4 -16 3 -16 -1 0 -10 -19 -132 -26 -164 l-6
-28 66 0 c35 0 68 -5 71 -11 5 -7 -40 -10 -147 -8 -159 2 -197 7 -162 20 15 6
12 8 -13 8 -29 1 -33 -2 -33 -26 0 -25 -1 -25 -18 -10 -11 10 -36 17 -58 17
-29 0 -35 3 -24 10 10 6 11 10 3 10 -15 0 -17 55 -6 163 5 62 8 68 27 65 13
-2 20 -10 19 -22z m-53 0 c0 -23 -16 -27 -17 -5 -1 10 2 19 8 19 5 0 9 -6 9
-14z m2360 4 c11 -8 7 -9 -15 -4 -37 8 -45 14 -19 14 10 0 26 -5 34 -10z
m-2116 -25 c-6 -16 -34 -21 -34 -7 0 13 11 22 26 22 8 0 11 -6 8 -15z m160
-30 c-4 -8 -2 -15 3 -15 5 0 9 -9 10 -20 1 -11 -3 -20 -8 -20 -6 0 -7 -4 -4
-10 3 -5 -3 -10 -13 -10 -18 0 -19 4 -11 38 5 20 9 40 9 45 0 4 4 7 10 7 5 0
7 -7 4 -15z m51 -51 c-8 -20 -9 -37 -3 -47 11 -21 5 -33 -20 -39 -17 -5 -18
-2 -5 64 15 82 24 100 34 72 3 -10 1 -33 -6 -50z m-815 40 c0 -8 -4 -12 -10
-9 -5 3 -10 10 -10 16 0 5 5 9 10 9 6 0 10 -7 10 -16z m-1686 -6 c-5 -8 -2 -9
12 -3 10 4 30 9 44 10 22 2 22 2 2 -2 -32 -6 -21 -29 12 -25 l27 4 -6 -54 c-3
-29 -8 -63 -11 -75 -2 -13 0 -23 6 -23 5 0 10 15 10 33 0 56 12 107 25 107 10
0 11 -10 3 -42 -15 -66 -16 -88 -4 -95 6 -4 83 -6 171 -5 95 1 166 -2 175 -8
10 -7 -44 -10 -175 -9 -244 2 -263 4 -259 32 2 12 5 43 7 68 4 46 4 46 -27 45
-31 -1 -31 -2 -34 -60 -2 -38 1 -62 9 -67 7 -4 -4 -7 -25 -7 -30 0 -36 4 -36
21 0 20 0 20 15 1 13 -17 14 -13 15 49 0 41 -4 67 -11 67 -6 0 -8 -8 -4 -19 3
-10 1 -29 -4 -42 -9 -22 -10 -22 -11 11 0 19 -3 45 -6 57 -5 18 -1 25 17 32
35 14 72 14 63 -1z m349 3 c106 -1 138 -4 135 -13 -4 -10 -44 -14 -149 -15
-79 -1 -154 1 -166 4 -35 8 -28 28 9 26 18 -1 95 -2 171 -2z m1947 -68 c-11
-17 -11 -17 -6 0 3 10 7 33 8 50 l1 32 4 -32 c2 -18 -1 -41 -7 -50z m398 -38
c-3 -3 -17 -1 -31 4 -22 9 -27 23 -18 48 1 1 13 -9 28 -23 14 -13 24 -27 21
-29z m-245 -12 c-3 -7 -11 -13 -19 -13 -17 0 -18 32 -2 48 10 10 14 9 19 -5 3
-10 4 -24 2 -30z m334 -35 c-3 -8 -6 -5 -6 6 -1 11 2 17 5 13 3 -3 4 -12 1
-19z m35 -17 c4 -46 0 -63 -13 -55 -12 7 -12 94 0 94 5 0 11 -18 13 -39z m30
-1 c-2 -16 -6 -30 -8 -30 -2 0 -4 14 -4 30 0 17 4 30 8 30 5 0 7 -13 4 -30z
m58 10 c0 -6 11 -15 25 -20 14 -5 25 -16 25 -25 0 -9 -9 -15 -25 -15 -14 0
-25 5 -25 10 0 6 -8 10 -17 8 -12 -2 -19 5 -21 21 -2 15 0 21 7 17 6 -4 11 -2
11 3 0 6 5 11 10 11 6 0 10 -5 10 -10z m-782 -45 c-10 -11 -48 -14 -53 -4 -4
5 8 9 26 9 18 0 30 -2 27 -5z m130 -2 c-16 -2 -40 -2 -55 0 -16 2 -3 4 27 4
30 0 43 -2 28 -4z m-3428 -68 c0 -23 5 -35 14 -35 10 0 15 -33 20 -147 4 -82
7 -167 7 -191 -1 -40 0 -42 18 -32 11 5 23 15 26 20 3 6 16 10 28 10 13 0 17
-3 11 -8 -6 -4 -13 -15 -17 -24 -5 -14 -94 -68 -112 -68 -3 0 -5 10 -5 21 0
12 -8 28 -17 35 -17 13 -17 13 0 14 12 0 17 6 15 18 -2 9 -10 16 -18 14 -11
-3 -11 0 -1 12 10 12 12 63 9 206 -2 147 0 190 10 190 7 0 12 -14 12 -35z
m4385 -9 c14 -4 25 -11 25 -16 0 -5 7 -7 15 -4 8 4 15 1 15 -5 0 -6 6 -11 14
-11 22 0 8 -46 -15 -47 -10 -1 -19 3 -19 8 0 6 -4 7 -10 4 -5 -3 -10 1 -10 9
0 9 -13 18 -35 22 -26 5 -37 12 -41 31 -8 29 15 51 28 29 4 -8 19 -17 33 -20z
m-518 2 c-3 -8 -6 -5 -6 6 -1 11 2 17 5 13 3 -3 4 -12 1 -19z m440 -10 c-3 -7
-5 -2 -5 12 0 14 2 19 5 13 2 -7 2 -19 0 -25z m-470 0 c20 -22 40 -68 29 -68
-14 0 -96 65 -96 77 0 21 45 15 67 -9z m-2987 -37 c0 -5 -7 -11 -15 -15 -15
-5 -20 5 -8 17 9 10 23 9 23 -2z m-1089 -41 c13 0 11 -28 -2 -32 -9 -3 -9 -17
0 -56 13 -61 15 -135 4 -146 -5 -4 -9 -12 -9 -17 -1 -5 -2 -15 -3 -21 -1 -8
-5 -7 -12 4 -6 12 -6 32 2 65 9 36 10 48 1 51 -7 2 -12 26 -12 60 0 69 13 148
18 115 2 -13 8 -23 13 -23z m1859 10 c0 -20 -5 -30 -15 -30 -8 0 -15 -7 -15
-15 0 -8 5 -15 10 -15 11 0 13 -42 4 -77 -4 -14 -14 -23 -26 -23 -19 0 -20 5
-14 68 3 37 6 79 6 95 0 22 4 27 25 27 21 0 25 -5 25 -30z m1699 -70 c0 -82
-2 -91 -22 -101 -16 -9 -22 -9 -25 0 -3 9 -7 9 -18 0 -11 -9 -14 -8 -14 6 0
14 6 16 30 13 l30 -5 0 94 c0 58 4 92 10 88 5 -3 9 -46 9 -95z m1206 90 c3 -5
1 -10 -4 -10 -6 0 -11 5 -11 10 0 6 2 10 4 10 3 0 8 -4 11 -10z m-3075 -17 c0
-2 -6 -11 -14 -19 -17 -16 -31 -2 -22 21 5 13 36 11 36 -2z m40 -4 c0 -24 -23
-21 -28 4 -2 10 3 17 12 17 10 0 16 -9 16 -21z m56 10 c3 -6 2 -15 -2 -19 -12
-12 -38 5 -30 19 9 14 23 14 32 0z m1722 -12 c2 -10 -3 -17 -12 -17 -10 0 -16
9 -16 21 0 24 23 21 28 -4z m390 11 c17 -17 15 -26 -7 -33 -21 -6 -35 -45 -22
-58 5 -5 4 -26 -2 -48 -5 -22 -12 -37 -15 -34 -3 2 -11 0 -19 -7 -22 -18 -23
-6 -9 71 13 70 13 74 -5 78 -23 6 -25 22 -4 24 28 3 33 4 41 12 11 11 28 9 42
-5z m-458 -8 c0 -5 -7 -10 -15 -10 -8 0 -15 5 -15 10 0 6 7 10 15 10 8 0 15
-4 15 -10z m230 1 c0 -6 -4 -13 -10 -16 -5 -3 -10 1 -10 9 0 9 5 16 10 16 6 0
10 -4 10 -9z m120 -1 c0 -5 -4 -10 -10 -10 -5 0 -10 5 -10 10 0 6 5 10 10 10
6 0 10 -4 10 -10z m-2154 -57 c-9 -74 -24 -90 -22 -24 1 28 -1 57 -6 63 -7 13
-10 4 -12 -49 -1 -10 -5 -21 -11 -25 -6 -5 -4 -12 5 -18 11 -7 12 -10 2 -10
-9 0 -11 -7 -7 -20 4 -14 2 -20 -8 -20 -8 0 -15 6 -14 13 0 6 -1 31 -1 54 l-2
41 -66 1 -66 0 5 -27 c6 -31 -2 -82 -12 -82 -4 0 -8 23 -9 51 -1 61 -14 79
-42 61 -17 -11 -20 -10 -20 8 0 18 7 20 73 21 39 1 87 0 105 -1 17 -1 32 2 32
7 0 4 19 9 41 10 l42 3 -7 -57z m2084 47 c0 -5 -5 -10 -11 -10 -5 0 -7 5 -4
10 3 6 8 10 11 10 2 0 4 -4 4 -10z m555 -60 c33 -22 66 -40 73 -40 6 0 12 -11
12 -25 l0 -24 -50 29 c-28 17 -53 30 -56 30 -15 0 -64 43 -64 56 0 23 21 16
85 -26z m-4213 -118 c-15 -97 -16 -133 -2 -112 7 12 10 8 10 -15 0 -34 -15
-63 -26 -52 -9 9 -15 273 -7 301 4 16 8 13 21 -13 13 -28 14 -44 4 -109z m848
128 c0 -5 -4 -10 -10 -10 -5 0 -10 5 -10 10 0 6 5 10 10 10 6 0 10 -4 10 -10z
m-1077 -17 c2 -5 7 -25 11 -46 5 -28 4 -37 -6 -35 -7 2 -12 -3 -10 -11 3 -12
0 -12 -12 -1 -17 13 -20 40 -10 78 6 22 19 29 27 15z m1674 -40 c-3 -10 -5 -2
-5 17 0 19 2 27 5 18 2 -10 2 -26 0 -35z m1993 15 c0 -5 -4 -8 -10 -8 -5 0
-10 10 -10 23 0 18 2 19 10 7 5 -8 10 -18 10 -22z m1480 2 c0 -16 -4 -30 -10
-30 -5 0 -10 14 -10 30 0 17 5 30 10 30 6 0 10 -13 10 -30z m-4130 10 c0 -5
-6 -10 -14 -10 -8 0 -16 -5 -18 -12 -3 -8 -9 -8 -24 0 -18 11 -18 11 3 12 12
0 25 5 28 10 3 6 10 10 16 10 5 0 9 -4 9 -10z m4170 -20 c0 -16 -4 -30 -10
-30 -5 0 -10 14 -10 30 0 17 5 30 10 30 6 0 10 -13 10 -30z m-5483 -2 c-3 -8
-6 -5 -6 6 -1 11 2 17 5 13 3 -3 4 -12 1 -19z m5566 -3 c18 -5 27 -14 28 -29
0 -11 3 -15 6 -8 2 6 9 10 14 6 5 -3 9 2 9 10 0 9 4 16 9 16 4 0 3 -23 -2 -52
-6 -29 -12 -47 -15 -40 -2 7 -10 12 -17 12 -8 0 -17 5 -21 12 -4 7 -3 8 4 4 7
-4 12 -2 12 3 0 6 -9 11 -19 11 -11 0 -23 5 -26 10 -4 6 -15 8 -26 5 -16 -5
-19 -1 -19 23 0 30 7 33 63 17z m-5350 -10 c4 -8 2 -17 -3 -20 -6 -4 -10 3
-10 14 0 25 6 27 13 6z m1017 -4 c0 -5 -7 -11 -15 -15 -15 -5 -20 5 -8 17 9
10 23 9 23 -2z m30 5 c0 -3 -4 -8 -10 -11 -5 -3 -10 -1 -10 4 0 6 5 11 10 11
6 0 10 -2 10 -4z m-1151 -33 c0 -11 -3 -13 -6 -5 -2 6 -9 12 -14 12 -6 0 -7
-4 -4 -10 3 -5 2 -10 -4 -10 -13 0 -22 15 -14 24 14 13 43 6 42 -11z m38 -45
c-2 -13 -4 -3 -4 22 0 25 2 35 4 23 2 -13 2 -33 0 -45z m4549 37 c0 -14 -4
-25 -8 -25 -4 0 -8 11 -8 25 0 14 4 25 8 25 4 0 8 -11 8 -25z m70 -5 c8 0 14
-7 14 -16 0 -8 5 -12 10 -9 6 3 10 -3 10 -15 0 -12 5 -18 10 -15 6 3 10 -1 10
-10 0 -12 -4 -14 -19 -5 -30 15 -31 14 -31 -42 l0 -53 -15 29 c-11 20 -12 33
-5 40 13 13 13 76 0 76 -5 0 -10 10 -9 23 0 12 3 16 6 10 2 -7 11 -13 19 -13z
m910 -22 c-7 -45 -12 -55 -22 -45 -10 9 7 87 18 87 7 0 8 -15 4 -42z m-5653
17 c-3 -9 -8 -14 -10 -11 -3 3 -2 9 2 15 9 16 15 13 8 -4z m285 -40 c-2 -27
-5 -39 -10 -31 -7 13 0 76 8 76 2 0 3 -20 2 -45z m-218 8 c0 -21 -3 -24 -9
-14 -5 8 -7 20 -4 28 8 21 13 15 13 -14z m132 1 c-4 -23 -6 -24 -15 -9 -8 14
2 32 19 35 1 0 -1 -12 -4 -26z m28 -34 c0 -27 -4 -50 -9 -50 -12 0 -21 39 -10
46 5 3 9 16 9 30 0 13 2 24 5 24 3 0 5 -22 5 -50z m4926 7 c-7 -35 -11 -41
-23 -34 -5 3 -7 21 -5 41 3 26 8 33 19 29 11 -4 13 -14 9 -36z m544 28 c0 5 5
4 11 -2 8 -8 7 -17 -3 -32 -12 -17 -17 -19 -26 -8 -6 7 -8 23 -5 36 4 17 8 19
14 9 5 -7 9 -9 9 -3z m66 -63 c-13 -12 -18 9 -10 45 l8 38 4 -39 c2 -21 1 -41
-2 -44z m-5609 46 c-3 -8 -6 -5 -6 6 -1 11 2 17 5 13 3 -3 4 -12 1 -19z m211
-13 c0 -14 -4 -25 -9 -25 -5 0 -9 14 -9 31 0 16 4 28 9 25 5 -3 9 -17 9 -31z
m-271 -42 c-2 -16 -4 -5 -4 22 0 28 2 40 4 28 2 -13 2 -35 0 -50z m843 49 c0
-24 -40 -49 -51 -31 -6 10 -11 10 -24 -1 -13 -10 -13 -15 -3 -21 10 -7 9 -9
-3 -9 -9 0 -22 -7 -29 -15 -7 -8 -17 -15 -23 -15 -8 0 -8 3 0 11 6 6 10 17 8
23 -3 8 100 71 123 76 1 0 2 -8 2 -18z m4050 8 c6 10 10 11 10 3 0 -7 9 -13
19 -13 13 0 21 -8 23 -22 2 -14 11 -24 23 -26 18 -2 18 -2 3 8 -10 6 -18 15
-18 20 0 18 15 10 34 -19 11 -16 26 -27 33 -24 8 3 13 -3 13 -15 0 -30 17 -36
26 -10 7 22 7 22 15 3 4 -11 8 -14 8 -7 1 6 6 12 12 12 6 0 9 -9 6 -20 -3 -10
0 -21 5 -22 6 -2 9 -11 7 -20 -3 -13 -17 -8 -74 28 -38 24 -94 58 -122 76 -29
18 -53 39 -53 48 0 13 1 13 10 0 9 -13 11 -13 20 0z m-450 -19 c0 -17 -3 -18
-25 -8 -32 15 -32 27 0 27 18 0 25 -5 25 -19z m-4540 -6 c0 -8 -2 -15 -4 -15
-2 0 -6 7 -10 15 -3 8 -1 15 4 15 6 0 10 -7 10 -15z m5800 -15 c0 -16 -4 -30
-10 -30 -11 0 -14 43 -3 53 11 12 13 8 13 -23z m-5537 -9 c2 -10 1 -25 -4 -32
-6 -10 -9 -4 -9 19 0 36 5 42 13 13z m5952 -58 c0 -13 5 -22 10 -20 6 1 9 10
8 20 -3 19 5 21 41 7 20 -7 26 -17 26 -39 0 -30 -17 -51 -29 -34 -3 5 -25 14
-47 21 -35 10 -42 17 -46 43 -4 26 -2 30 16 27 14 -2 21 -10 21 -25z m-5978
-30 c-3 -10 -5 -2 -5 17 0 19 2 27 5 18 2 -10 2 -26 0 -35z m4313 22 c0 -8 -7
-15 -15 -15 -8 0 -15 7 -15 15 0 8 7 15 15 15 8 0 15 -7 15 -15z m500 -6 c0
-4 6 -6 14 -3 18 7 32 -14 18 -28 -7 -7 -18 -4 -36 8 -28 21 -35 47 -11 38 8
-4 15 -10 15 -15z"/>
<path d="M877 1685 c-10 -14 -14 -25 -9 -25 5 0 15 -28 21 -62 7 -35 16 -72
21 -83 8 -18 9 -18 9 5 1 14 -3 41 -8 60 -17 66 -21 101 -11 95 6 -3 10 3 10
14 0 28 -11 26 -33 -4z"/>
<path d="M772 1673 c9 -10 19 -34 23 -54 8 -43 21 -66 32 -55 4 5 2 11 -4 13
-9 3 -10 10 -3 22 10 19 -22 75 -49 86 -12 5 -11 2 1 -12z"/>
<path d="M841 1644 c0 -11 3 -14 6 -6 3 7 2 16 -1 19 -3 4 -6 -2 -5 -13z"/>
<path d="M820 1538 c1 -7 7 -26 15 -43 l14 -30 -2 31 c0 17 -7 36 -14 43 -10
9 -13 9 -13 -1z"/>
<path d="M1001 1354 c0 -11 3 -14 6 -6 3 7 2 16 -1 19 -3 4 -6 -2 -5 -13z"/>
<path d="M658 1283 c7 -3 16 -2 19 1 4 3 -2 6 -13 5 -11 0 -14 -3 -6 -6z"/>
<path d="M6526 1793 c-6 -14 -5 -15 5 -6 7 7 10 15 7 18 -3 3 -9 -2 -12 -12z"/>
<path d="M5291 1693 c-1 -6 -4 -20 -7 -30 -5 -17 -5 -17 6 0 6 10 9 23 6 30
-3 9 -5 9 -5 0z"/>
<path d="M5020 1629 c0 -52 24 -48 28 4 2 28 -1 37 -12 37 -12 0 -16 -11 -16
-41z"/>
<path d="M5486 1584 c-4 -10 2 -14 19 -14 30 0 33 16 6 23 -12 3 -22 -1 -25
-9z"/>
<path d="M1330 1652 c0 -5 7 -13 16 -16 10 -4 14 -1 12 6 -5 15 -28 23 -28 10z"/>
<path d="M1912 1320 c0 -14 2 -19 5 -12 2 6 2 18 0 25 -3 6 -5 1 -5 -13z"/>
<path d="M3096 1435 c-9 -26 -7 -32 5 -12 6 10 9 21 6 23 -2 3 -7 -2 -11 -11z"/>
<path d="M5042 1215 c0 -16 2 -22 5 -12 2 9 2 23 0 30 -3 6 -5 -1 -5 -18z"/>
<path d="M5012 1120 c0 -14 2 -19 5 -12 2 6 2 18 0 25 -3 6 -5 1 -5 -13z"/>
<path d="M5050 1130 c-9 -6 -10 -10 -3 -10 6 0 15 5 18 10 8 12 4 12 -15 0z"/>
<path d="M5090 1110 c0 -11 2 -20 4 -20 2 0 6 9 9 20 3 11 1 20 -4 20 -5 0 -9
-9 -9 -20z"/>
<path d="M5042 1085 c0 -16 2 -22 5 -12 2 9 2 23 0 30 -3 6 -5 -1 -5 -18z"/>
<path d="M4970 1040 c0 -5 5 -10 11 -10 5 0 7 5 4 10 -3 6 -8 10 -11 10 -2 0
-4 -4 -4 -10z"/>
<path d="M5078 1023 c7 -3 16 -2 19 1 4 3 -2 6 -13 5 -11 0 -14 -3 -6 -6z"/>
<path d="M1381 1329 c0 -9 6 -22 14 -29 10 -9 15 -9 15 -1 0 6 -4 11 -9 11 -5
0 -12 8 -14 18 -4 14 -5 14 -6 1z"/>
<path d="M1520 1311 c0 -5 5 -13 10 -16 6 -3 10 -2 10 4 0 5 -4 13 -10 16 -5
3 -10 2 -10 -4z"/>
<path d="M1546 1281 c-4 -7 -5 -15 -2 -18 9 -9 19 4 14 18 -4 11 -6 11 -12 0z"/>
<path d="M2191 1131 c-8 -5 -11 -32 -9 -82 3 -67 5 -74 25 -77 17 -2 23 3 28
27 3 17 4 35 1 40 -3 5 -7 27 -8 50 -1 40 -15 55 -37 42z"/>
<path d="M2451 1073 c-1 -6 -4 -20 -7 -30 -5 -17 -5 -17 6 0 6 10 9 23 6 30
-3 9 -5 9 -5 0z"/>
<path d="M2253 689 c-4 -24 -7 -50 -6 -56 2 -39 7 -31 13 27 9 75 4 94 -7 29z"/>
<path d="M6088 2233 c7 -3 16 -2 19 1 4 3 -2 6 -13 5 -11 0 -14 -3 -6 -6z"/>
<path d="M758 2093 c-30 -7 -20 -22 22 -34 36 -11 42 -10 54 7 8 10 14 20 13
20 -8 5 -76 11 -89 7z"/>
<path d="M625 2080 c-3 -5 3 -10 15 -10 12 0 18 5 15 10 -3 6 -10 10 -15 10
-5 0 -12 -4 -15 -10z"/>
<path d="M843 1966 c9 -7 17 -19 17 -25 0 -18 17 -4 23 19 4 17 0 20 -26 20
-29 -1 -30 -2 -14 -14z"/>
<path d="M5772 1670 c-1 -53 1 -61 10 -43 8 16 8 36 1 65 l-11 43 0 -65z"/>
<path d="M5930 1622 c-8 -2 -24 -12 -34 -21 -18 -15 -19 -15 -13 2 4 9 2 17
-4 17 -6 0 -16 -13 -22 -29 -5 -15 -23 -36 -38 -47 -39 -26 -30 -28 19 -4 22
11 45 20 50 20 10 0 67 58 61 64 -2 2 -11 1 -19 -2z"/>
<path d="M3423 1603 c26 -2 67 -2 90 0 23 2 2 3 -48 3 -49 0 -68 -1 -42 -3z"/>
<path d="M3378 1288 c4 -107 12 -178 19 -178 21 0 32 44 33 122 0 78 -2 87
-20 93 -13 4 -20 15 -20 31 0 13 -3 24 -7 24 -5 0 -7 -42 -5 -92z"/>
<path d="M3470 1279 c0 -5 5 -7 11 -3 6 3 15 0 20 -7 7 -11 9 -10 9 4 0 10 -8
17 -20 17 -11 0 -20 -5 -20 -11z"/>
<path d="M5761 1274 c0 -11 3 -14 6 -6 3 7 2 16 -1 19 -3 4 -6 -2 -5 -13z"/>
<path d="M3496 1191 c-4 -7 -5 -15 -2 -18 9 -9 19 4 14 18 -4 11 -6 11 -12 0z"/>
<path d="M3915 350 c10 -11 20 -20 23 -20 3 0 -3 9 -13 20 -10 11 -20 20 -23
20 -3 0 3 -9 13 -20z"/>
</g>
</svg>
